<svg xmlns="http://www.w3.org/2000/svg" xml:space="preserve" viewBox="476 121.7 848.9 579"><path fill="#1a2266" d="M735 365h-32v117h-49V125l14-1 29-1 44-1c16 0 32 2 46 9 18 9 29 23 35 42 4 13 7 26 7 40 0 15 2 30 1 45-1 23-4 46-15 67a67 67 0 0 1-50 37l-30 3m-32-115v71l38-1c16-1 27-10 33-26 7-17 7-35 8-53l-1-16-3-27c-3-15-10-26-26-31-13-4-26-2-39-1l-10 1v83zM1012 286l2 11 1 18 1 39c-1 24-2 48-8 71-4 17-10 33-23 45-9 9-21 13-34 15-7 2-14 3-21 2-18 0-36-3-51-16-5-4-10-10-14-16-9-16-13-33-15-50l-3-34-1-46c2-25 3-50 12-74 6-17 15-30 30-39 9-5 19-7 29-8l13-1c14 0 27 1 39 7 14 5 23 15 30 28s10 26 12 41l1 7m-58-29c-6-8-15-11-25-10-12 1-20 6-25 17-6 17-7 34-8 50a1055 1055 0 0 0 5 102c3 13 9 25 24 27 10 2 22-1 29-10 7-10 9-22 10-33l3-54-1-19-2-34c-1-13-3-24-10-36zM1063 484l-31-9 7-40 30 7c16 3 31 5 47 0 11-4 18-14 19-27 2-19-9-31-24-40l-37-22c-12-9-23-19-30-32l-7-26-1-20c1-20 7-39 22-53 11-10 23-16 37-17 8-1 16-3 24-2 18 0 36 3 52 11l-7 38c-1 4-3 3-5 2-16-6-32-8-48-7-12 0-22 4-27 16-4 12-3 24 5 35 8 10 19 16 30 22 15 9 30 17 42 30 10 10 16 22 18 36l2 31c-1 23-9 42-29 56-10 7-21 11-34 13-7 0-15 2-22 1l-33-3zM1308 441l8-2 4 20 3 14c1 5-1 7-8 9-11 3-22 4-33 5-12 1-23 0-34-5-13-5-20-16-25-29s-7-27-7-42V248h-28v-37l23-2c3-1 5-1 5-4l4-37 3-21h41v60h53v41h-53v164c0 8 2 15 7 22 7 9 18 9 29 8l8-1z"/><path fill="#4cbb17" d="m565 387-41 2c0 16-1 32 9 46 4 7 11 9 19 10 19 3 37-2 56-7l7 40c-9 2-18 6-27 7-11 2-23 4-34 4-22 1-43-4-57-23-9-10-13-21-16-34l-4-29-1-41c1-23 4-45 14-66 9-18 22-29 41-34 17-4 34-4 49 3 14 5 23 16 28 30s8 28 8 43v44l-51 5m-19-32 25-2-1-19-4-24c-2-8-12-14-18-13-8 2-15 7-17 16l-6 26-1 17 22-1zM1098 564v-50h23v53l14-4c18-5 30 3 36 19 4 11 6 23 6 35l-1 37c-1 12-4 24-12 34-6 7-14 10-22 12-15 2-29-1-44-5V564m45 22c-6-5-12-2-17 0-4 2-5 4-5 7v86l5 1c11 3 19-1 22-12 2-7 4-14 4-22l-1-40c-1-7-2-14-8-20zM932 541c-2 7-2 7-9 6-8-2-16-3-24-1-12 2-17 12-20 23-5 18-4 37-4 55 0 13 2 26 6 38 4 11 15 19 27 16l4-1 4-1v-48h-20v-22h42v82c0 3 0 5-4 6l-23 5h-24c-14-3-23-13-28-26-4-11-7-23-7-35l-1-44c1-19 4-39 15-55 8-11 19-17 32-17 12-1 24 0 36 4l-2 15zM1006 679c-4-10-5-20-6-30l-1-23c1-14 1-29 7-43 5-13 15-21 29-21 7 0 14-1 21 1 13 4 20 14 23 27a171 171 0 0 1-1 83c-4 15-12 24-28 27-11 1-22 0-32-5-6-4-10-9-12-16m47-7c1-5 4-10 4-15a375 375 0 0 0-2-63c-1-6-7-11-13-11-6-1-12 3-14 10l-3 20c-2 17-1 34 1 50l4 10c6 8 15 8 23-1zM1206 629l28-7c3-1 4-2 4-5v-16c0-11-8-16-16-16s-15 1-22 3c-4 1-5 0-6-3l-4-19 27-4c7-1 13 0 20 1 14 2 22 12 24 26l1 15v68c1 4 3 5 8 4h2l3 18-1 3c-7 5-22 5-28 0l-6-7c-6 4-13 8-21 10-15 3-28-5-32-19-4-13-4-25 2-37 4-7 10-12 17-15m9 17c-4 3-6 8-7 13-1 7 1 16 8 20 4 3 11 2 18-3 1-2 4-3 4-5v-34l-23 9zM1283 598v-84h24v149l1 8c1 5 5 7 10 6l5-1 2 20c-11 5-22 7-33 0-5-5-8-11-8-18l-1-80zM978 579v89c2 9 4 10 16 8l2 17-1 4c-12 6-32 6-38-11l-3-18V514h24v65z"/></svg>