<?xml version="1.0" encoding="UTF-8" standalone="no"?>
<svg version="1.1"
   id="svg3883" x="0px" y="0px" width="605.87" height="185.606" viewBox="0 0 605.87001 185.60601" enable-background="new 0 0 737.175 269.852" xml:space="preserve" xmlns="http://www.w3.org/2000/svg" xmlns:svg="http://www.w3.org/2000/svg">
<g
   id="layer1"
   transform="translate(-317.483,-232.079)">
	<path
   id="path716"
   fill="#ff6600"
   d="m 869.756,411.182 -24.824,-27.851 -24.594,27.851 H 768.584 L 819.17,354.34 768.584,297.485 h 53.369 l 25.068,27.62 24.117,-27.62 h 51.523 l -50.355,56.625 51.047,57.073 h -53.597 z" />
	<path
   id="path720"
   fill="#ff6600"
   d="M 669.174,411.182 V 232.091 h 99.406 v 39.917 h -57.303 v 25.476 h 57.303 v 38.411 h -57.303 v 35.262 h 57.303 v 40.026 z" />
	<path
   id="path724"
   fill="#412c91"
   d="m 601.789,383.915 c -15.459,0 -25.069,-14.4 -25.069,-29.438 0,-16.083 8.361,-31.542 25.069,-31.542 17.332,0 24.227,15.459 24.227,31.542 0,15.242 -7.315,29.438 -24.227,29.438 m -149.014,-47.49 c 2.647,-11.36 11.469,-18.798 22.49,-18.798 12.121,0 20.495,7.207 22.694,18.798 z M 627.238,232.079 v 73.306 h -0.462 c -9.283,-10.682 -20.875,-14.387 -34.338,-14.387 -27.58,0 -48.332,18.744 -55.634,43.527 -8.307,-27.308 -29.751,-44.043 -61.539,-44.043 -25.815,0 -46.201,11.591 -56.842,30.484 v -23.48 H 365.042 V 272.01 h 58.254 V 232.079 H 317.483 v 179.104 h 47.559 v -75.287 h 47.423 c -1.412,5.537 -2.172,11.455 -2.172,17.698 0,37.366 28.543,63.575 64.972,63.575 30.62,0 50.816,-14.373 61.484,-40.596 H 495.99 c -5.524,7.885 -9.705,10.22 -20.726,10.22 -12.785,0 -23.806,-11.144 -23.806,-24.376 h 83.01 c 3.597,29.684 26.711,55.268 58.43,55.268 13.681,0 26.222,-6.732 33.877,-18.105 h 0.462 v 11.604 h 41.939 V 232.079 Z" />
</g>
</svg>
