<?xml version="1.0" encoding="UTF-8" standalone="no"?>
<!-- Generator: Adobe Illustrator 16.0.0, SVG Export Plug-In . SVG Version: 6.00 Build 0)  -->

<svg
   version="1.2"
   id="Layer_1"
   x="0px"
   y="0px"
   width="260.71802"
   height="159.76498"
   viewBox="0 0 260.71802 159.76498"
   xml:space="preserve"
   xmlns="http://www.w3.org/2000/svg"
   xmlns:svg="http://www.w3.org/2000/svg"><defs
   id="defs3" />
<g
   id="g3"
   transform="translate(-46.465,-470.32901)">
	<path
   fill="#144ba0"
   d="m 80.033,471.085 c 0,0 133.514,27.511 136.038,28.016 30.792,5.299 29.782,11.358 29.782,11.358 21.454,-0.255 24.229,0.756 27.763,3.783 11.358,9.342 -7.067,37.103 -7.067,37.103 -2.523,2.021 -200.903,78.748 -200.903,78.748 H 273.11 L 307.183,470.329 H 80.284 l -0.251,0.756"
   id="path1" />
	<path
   fill="#144ba0"
   d="m 235.505,522.825 c -4.796,1.516 -9.591,2.526 -14.639,2.776 -3.534,0.253 -4.543,0.506 -4.543,2.021 0,1.008 0.505,1.767 5.553,1.767 11.61,0 32.559,-4.293 39.121,-2.272 3.28,1.009 0.504,6.815 -2.271,14.637 -1.009,3.029 1.01,3.029 2.271,1.516 3.28,-4.796 5.805,-10.348 7.319,-16.406 0.757,-7.066 -5.3,-8.076 -13.881,-8.076 h -13.629 c -0.758,0 -1.262,0.505 -2.019,1.516 -1.011,1.009 -2.02,2.017 -3.282,2.521"
   id="path2" />
	<path
   fill="#144ba0"
   d="M 72.46,507.431 46.465,630.094 c 0,0 79.755,-39.124 89.598,-44.168 23.473,-12.62 47.955,-23.473 73.194,-32.56 12.367,-4.292 24.986,-7.574 37.858,-10.349 4.542,-0.758 6.563,-1.514 6.563,-2.524 -0.253,-2.522 -4.796,-2.522 -12.873,-2.271 -24.482,1.261 -71.426,19.938 -84.804,27.004 l -15.396,-47.194 h 97.422 c 4.291,-12.367 -57.544,-10.601 -59.563,-10.601 H 72.46"
   id="path3" />
</g>
</svg>
